<svg class="MuiSvgIcon-root MuiSvgIcon-colorSuccess MuiSvgIcon-fontSizeMedium live-price-minimal_icon__D00iH muirtl-12fkfcd" focusable="false" aria-hidden="true" viewBox="0 0 24 24"><path d="m5 13.535c0-0.6443 0.52233-1.1667 1.1667-1.1667 0.64433 0 1.1667 0.5224 1.1667 1.1667v4.2982c0 0.6444-0.52233 1.1667-1.1667 1.1667-0.64434 0-1.1667-0.5223-1.1667-1.1667v-4.2982zm11.667-2.9474c0-0.64431 0.5223-1.1666 1.1666-1.1666 0.6444 0 1.1667 0.52234 1.1667 1.1666v7.2456c0 0.6444-0.5223 1.1667-1.1667 1.1667-0.6443 0-1.1666-0.5223-1.1666-1.1667v-7.2456zm-5.8334-4.421c0-0.64434 0.5224-1.1667 1.1667-1.1667s1.1667 0.52233 1.1667 1.1667v11.667c0 0.6444-0.5224 1.1667-1.1667 1.1667s-1.1667-0.5223-1.1667-1.1667v-11.667z"></path><rect x="1" y="1" width="22" height="22" rx="3" stroke="#30BE81" fill="none" stroke-width="2"></rect></svg>